<svg version="1.1" id="Layer_1" xmlns="http://www.w3.org/2000/svg" xmlns:xlink="http://www.w3.org/1999/xlink" x="0px" y="0px"
	 width="100%" viewBox="0 0 512 512" enable-background="new 0 0 512 512" xml:space="preserve">
<path fill="#C97629" opacity="1.000000" stroke="none" 
	d="
M513.000000,139.000000 
	C513.000000,168.020889 513.000000,197.041794 512.661865,226.668274 
	C510.748352,233.302017 506.685120,237.424637 501.540253,240.987915 
	C500.478027,241.302643 499.721741,241.582581 498.572510,241.923019 
	C495.753662,242.576431 493.341309,243.232681 490.899933,243.752975 
	C424.641418,257.873932 358.379913,271.980988 292.089722,285.617554 
	C292.032410,281.658905 292.100525,278.169128 291.956512,274.688080 
	C291.644592,267.146667 287.704803,263.343597 279.566467,263.000549 
	C264.650726,262.964691 250.205246,262.901123 235.760254,262.960541 
	C226.246887,262.999664 222.085297,267.222443 222.015961,276.601593 
	C221.992645,279.755310 221.929443,282.908752 221.492310,286.008667 
	C151.449707,271.271851 81.799240,256.588715 11.973860,241.606995 
	C5.916292,238.261963 3.862098,232.326111 1.000000,227.000000 
	C1.000000,198.312439 1.000000,169.624878 1.339386,140.329926 
	C3.824174,130.035583 14.778751,122.792389 23.629303,122.856758 
	C62.406303,123.138763 101.187103,122.898895 140.208496,122.890205 
	C140.450470,122.932076 140.940399,122.894119 141.407639,122.970390 
	C164.604324,122.998489 187.333755,122.950317 210.309509,122.921524 
	C210.555801,122.940918 211.042114,122.853424 211.504593,122.914520 
	C242.297256,122.934952 272.627441,122.894279 303.200470,122.897476 
	C303.443329,122.941353 303.935669,122.902298 304.403534,122.976151 
	C327.600037,122.998070 350.328674,122.946144 373.302765,122.913048 
	C373.548218,122.931870 374.033447,122.848320 374.496216,122.911545 
	C412.067291,122.983185 449.180359,123.333145 486.281281,122.814072 
	C499.203949,122.633278 507.593231,127.824844 513.000000,139.000000 
M120.532288,134.996048 
	C117.205978,135.071564 113.778580,134.695023 110.594589,135.406967 
	C108.919350,135.781540 106.966278,137.840668 106.438286,139.542374 
	C105.970901,141.048737 106.761047,143.843033 107.977936,144.747177 
	C109.502266,145.879745 112.028618,145.978088 114.123405,145.981766 
	C151.090530,146.046448 188.057816,146.030579 225.025055,146.020691 
	C226.354065,146.020325 228.046417,146.394516 228.936005,145.737030 
	C230.756256,144.391769 233.540390,142.304825 233.371262,140.813126 
	C233.141495,138.786438 230.797516,136.602646 228.821213,135.310974 
	C227.514511,134.456940 225.261612,135.003708 223.432297,135.003189 
	C189.462402,134.993637 155.492493,134.996078 120.532288,134.996048 
M55.500000,146.030945 
	C65.827141,146.029037 76.154610,145.978760 86.481239,146.050171 
	C90.359520,146.076981 93.827232,145.442490 93.762764,140.683716 
	C93.701775,136.181198 90.432457,135.002731 86.505745,135.004242 
	C68.183426,135.011261 49.861019,135.036392 31.538845,134.984772 
	C27.442566,134.973221 24.376274,136.503052 24.409864,140.808167 
	C24.443165,145.076218 27.861288,146.012161 31.513845,146.016022 
	C39.175892,146.024094 46.837948,146.026428 55.500000,146.030945 
z"/>
<path fill="#FFFFFF" opacity="1.000000" stroke="none" 
	d="
M139.966522,122.848328 
	C101.187103,122.898895 62.406303,123.138763 23.629303,122.856758 
	C14.778751,122.792389 3.824174,130.035583 1.339386,139.861267 
	C1.000000,93.692352 1.000000,47.384705 1.000000,1.038530 
	C171.546356,1.038530 342.092743,1.038530 513.000000,1.038530 
	C513.000000,46.686928 513.000000,92.374802 513.000000,138.531342 
	C507.593231,127.824844 499.203949,122.633278 486.281281,122.814072 
	C449.180359,123.333145 412.067291,122.983185 374.465027,122.692017 
	C373.971069,122.409271 373.802582,121.998779 373.853973,121.545090 
	C373.860504,117.758652 373.815613,114.425903 373.823975,110.719551 
	C371.288605,100.213287 367.333832,100.158363 360.455780,99.137787 
	C356.072205,98.487350 351.520508,98.969833 346.874939,98.620628 
	C345.118591,94.376724 343.578918,90.436531 341.935608,86.540039 
	C336.792847,74.346039 334.121338,60.802860 323.941467,51.301952 
	C320.137848,47.752003 316.405609,43.196327 309.755310,43.926472 
	C306.247589,42.809387 303.074158,41.145412 299.888885,41.122375 
	C271.597260,40.917770 243.295151,40.595432 215.014069,41.178413 
	C201.179169,41.463604 189.694000,47.391529 183.661819,60.832123 
	C180.223312,68.493675 176.970856,76.263390 174.126404,84.161522 
	C169.011871,98.362991 169.166519,98.418831 154.342056,99.006744 
	C154.009537,99.019928 153.674545,98.998390 153.344009,99.028908 
	C145.072845,99.792709 141.892578,102.720222 140.171356,111.543182 
	C140.141541,115.324654 140.169479,118.657288 140.113220,122.197403 
	C140.029022,122.404884 139.966522,122.848328 139.966522,122.848328 
z"/>
<path fill="#FFFFFF" opacity="1.000000" stroke="none" 
	d="
M1.000000,227.468658 
	C3.862098,232.326111 5.916292,238.261963 11.912453,242.072845 
	C12.076545,246.215866 12.127120,249.594406 12.102077,253.438782 
	C12.017647,286.320709 11.987219,318.736816 12.007771,351.152893 
	C12.021049,372.095245 12.108997,393.037537 12.097937,414.444946 
	C12.020871,426.288757 11.977207,437.667664 12.040301,449.045929 
	C12.047819,450.401428 12.637475,451.753723 12.970787,453.495819 
	C14.777374,462.397705 19.269299,468.515808 28.364174,471.006622 
	C30.092285,471.467590 31.490997,471.762665 33.147858,472.409668 
	C45.938923,472.786285 58.471836,472.810944 71.465881,472.905457 
	C194.620895,472.983337 317.314789,472.991791 440.008667,472.992706 
	C441.003906,472.992737 441.999176,472.889832 443.458374,472.902222 
	C454.962646,472.979675 466.003174,473.022583 477.043091,472.958008 
	C478.401428,472.950073 479.756409,472.368073 481.513855,472.030090 
	C490.540894,472.167297 500.921326,461.883881 501.404236,452.856201 
	C501.783081,439.724060 501.809570,426.850800 501.905701,413.514862 
	C501.983551,376.967682 502.011200,340.883148 501.992615,304.798615 
	C501.981659,283.516754 501.897461,262.234955 501.846191,240.953110 
	C506.685120,237.424637 510.748352,233.302017 512.661865,227.136932 
	C513.000000,322.294830 513.000000,417.589691 513.000000,512.942261 
	C342.440765,512.942261 171.881470,512.942261 1.000000,512.942261 
	C1.000000,417.979340 1.000000,322.958344 1.000000,227.468658 
z"/>
<path fill="#A35425" opacity="1.000000" stroke="none" 
	d="
M292.118927,286.090393 
	C358.379913,271.980988 424.641418,257.873932 490.899933,243.752975 
	C493.341309,243.232681 495.753662,242.576431 498.765991,242.303864 
	C499.568024,244.427032 499.971191,246.229797 499.971954,248.032715 
	C499.995544,303.302307 499.979675,358.571930 499.505402,413.887939 
	C492.023895,413.892578 485.006866,413.850830 477.991913,413.352356 
	C477.995941,373.757843 478.010193,334.619995 477.994812,295.482147 
	C477.986664,274.719421 462.281860,261.449738 441.976288,265.570953 
	C403.963257,273.286041 366.004364,281.271271 328.059784,289.317871 
	C315.027740,292.081512 305.411346,302.449249 304.102264,314.372498 
	C303.739441,317.677032 303.407593,320.985199 303.014496,324.286102 
	C301.740234,334.986206 292.062164,343.843292 281.229126,343.964447 
	C269.406006,344.096680 257.579803,344.058136 245.755829,343.971375 
	C238.618729,343.919006 234.834900,340.300476 234.501709,333.071350 
	C250.325684,332.956604 265.685150,332.886078 281.264954,332.750488 
	C281.751099,332.518616 281.963776,332.300110 282.499695,332.023315 
	C289.213226,331.501343 291.958282,325.481598 291.990295,318.818176 
	C292.042725,307.908936 292.076996,296.999664 292.118927,286.090393 
z"/>
<path fill="#FFFFFF" opacity="1.000000" stroke="none" 
	d="
M302.957611,122.853607 
	C272.627441,122.894279 242.297256,122.934952 211.471985,122.693848 
	C210.976913,122.412086 210.808655,121.998657 210.859680,121.544907 
	C210.864334,117.758209 210.817963,114.425247 210.823593,110.711502 
	C209.649094,100.747040 202.361755,99.431068 194.179840,98.657150 
	C197.838882,88.889603 201.384018,79.426178 205.240646,69.802094 
	C209.555420,68.094887 213.535034,65.284256 217.565826,65.208839 
	C242.011917,64.751480 266.469696,64.918037 291.368774,64.929352 
	C297.626007,65.047035 304.407867,64.537369 307.360565,70.325348 
	C311.929474,79.281456 315.068665,88.966911 318.871490,98.486671 
	C308.069611,100.386116 303.958923,102.288635 303.169250,111.542770 
	C303.137329,115.324326 303.164337,118.657150 303.107208,122.198929 
	C303.023071,122.407883 302.957611,122.853607 302.957611,122.853607 
z"/>
<path fill="#F6B545" opacity="1.000000" stroke="none" 
	d="
M221.884491,286.062317 
	C221.929443,282.908752 221.992645,279.755310 222.015961,276.601593 
	C222.085297,267.222443 226.246887,262.999664 235.760254,262.960541 
	C250.205246,262.901123 264.650726,262.964691 279.565918,263.466614 
	C280.035553,280.776215 280.049805,297.595276 280.027618,314.414246 
	C280.019287,320.725281 279.778748,320.982422 273.637115,320.987183 
	C256.485138,321.000519 239.333191,320.968994 222.137024,320.491180 
	C222.027527,312.344513 221.962250,304.661774 221.942474,296.525146 
	C221.953461,292.734955 221.918976,289.398621 221.884491,286.062317 
M244.769928,274.041565 
	C243.447144,274.147003 242.106262,274.149353 240.805023,274.377625 
	C237.221451,275.006378 233.592651,275.843109 234.173065,280.679321 
	C234.705292,285.113922 237.970901,286.035583 241.822144,286.009094 
	C248.301682,285.964539 254.781799,285.978027 261.261536,286.001892 
	C264.721802,286.014648 267.607788,285.362762 267.958801,281.104401 
	C268.311005,276.831543 265.884827,274.886047 262.113312,274.610840 
	C256.660156,274.212952 251.178238,274.208832 244.769928,274.041565 
z"/>
<path fill="#A45525" opacity="1.000000" stroke="none" 
	d="
M221.492325,286.008667 
	C221.918976,289.398621 221.953461,292.734955 221.521912,296.529968 
	C219.567505,296.865570 218.045578,296.901245 216.595947,296.594879 
	C200.326416,293.156494 184.068954,289.661011 167.806427,286.189362 
	C115.930603,275.115295 64.053993,264.044830 12.177694,252.972946 
	C12.127120,249.594406 12.076545,246.215866 12.087377,242.371460 
	C81.799240,256.588715 151.449707,271.271851 221.492325,286.008667 
z"/>
<path fill="#F19921" opacity="1.000000" stroke="none" 
	d="
M222.181229,320.955139 
	C239.333191,320.968994 256.485138,321.000519 273.637115,320.987183 
	C279.778748,320.982422 280.019287,320.725281 280.027618,314.414246 
	C280.049805,297.595276 280.035553,280.776215 280.036377,263.491150 
	C287.704803,263.343597 291.644592,267.146667 291.956512,274.688080 
	C292.100525,278.169128 292.032410,281.658905 292.089722,285.617554 
	C292.076996,296.999664 292.042725,307.908936 291.990295,318.818176 
	C291.958282,325.481598 289.213226,331.501343 282.307373,332.137787 
	C281.492706,332.426117 281.261322,332.611664 281.044586,332.815521 
	C265.685150,332.886078 250.325684,332.956604 234.127197,332.991882 
	C224.858475,330.742859 222.621094,328.325256 222.181229,320.955139 
z"/>
<path fill="#DA8C36" opacity="1.000000" stroke="none" 
	d="
M121.027443,134.996033 
	C155.492493,134.996078 189.462402,134.993637 223.432297,135.003189 
	C225.261612,135.003708 227.514511,134.456940 228.821213,135.310974 
	C230.797516,136.602646 233.141495,138.786438 233.371262,140.813126 
	C233.540390,142.304825 230.756256,144.391769 228.936005,145.737030 
	C228.046417,146.394516 226.354065,146.020325 225.025055,146.020691 
	C188.057816,146.030579 151.090530,146.046448 114.123405,145.981766 
	C112.028618,145.978088 109.502266,145.879745 107.977936,144.747177 
	C106.761047,143.843033 105.970901,141.048737 106.438286,139.542374 
	C106.966278,137.840668 108.919350,135.781540 110.594589,135.406967 
	C113.778580,134.695023 117.205978,135.071564 121.027443,134.996033 
z"/>
<path fill="#72818B" opacity="1.000000" stroke="none" 
	d="
M303.191345,121.989975 
	C303.164337,118.657150 303.137329,115.324326 303.583618,111.571274 
	C309.859833,111.391174 315.664581,111.871262 321.465302,111.826469 
	C338.901276,111.691849 356.335724,111.352585 373.770752,111.093163 
	C373.815613,114.425903 373.860504,117.758652 373.712402,121.679413 
	C373.346741,122.462601 373.192688,122.671524 373.057312,122.894226 
	C350.328674,122.946144 327.600037,122.998070 304.295471,122.811905 
	C303.568573,122.356468 303.392517,122.161858 303.191345,121.989975 
z"/>
<path fill="#72818B" opacity="1.000000" stroke="none" 
	d="
M210.771606,111.092293 
	C210.817963,114.425247 210.864334,117.758209 210.718643,121.681259 
	C210.354660,122.468796 210.200211,122.679062 210.063202,122.902138 
	C187.333755,122.950317 164.604324,122.998489 141.299850,122.807297 
	C140.574219,122.352287 140.398422,122.159615 140.197418,121.989922 
	C140.169479,118.657288 140.141541,115.324654 140.585648,111.571579 
	C146.528305,111.391243 152.000809,111.871017 157.469162,111.827354 
	C175.237473,111.685493 193.004227,111.352005 210.771606,111.092293 
z"/>
<path fill="#DA8C36" opacity="1.000000" stroke="none" 
	d="
M55.000000,146.031036 
	C46.837948,146.026428 39.175892,146.024094 31.513845,146.016022 
	C27.861288,146.012161 24.443165,145.076218 24.409864,140.808167 
	C24.376274,136.503052 27.442566,134.973221 31.538845,134.984772 
	C49.861019,135.036392 68.183426,135.011261 86.505745,135.004242 
	C90.432457,135.002731 93.701775,136.181198 93.762764,140.683716 
	C93.827232,145.442490 90.359520,146.076981 86.481239,146.050171 
	C76.154610,145.978760 65.827141,146.029037 55.000000,146.031036 
z"/>
<path fill="#AF6127" opacity="1.000000" stroke="none" 
	d="
M499.969879,413.841553 
	C499.979675,358.571930 499.995544,303.302307 499.971954,248.032715 
	C499.971191,246.229797 499.568024,244.427032 499.158936,242.243347 
	C499.721741,241.582581 500.478027,241.302643 501.540253,240.987915 
	C501.897461,262.234955 501.981659,283.516754 501.992615,304.798615 
	C502.011200,340.883148 501.983551,376.967682 501.689331,413.548462 
	C501.403320,414.044678 500.976318,414.141937 500.724182,414.068542 
	C500.304688,413.943939 500.137268,413.892731 499.969879,413.841553 
z"/>
<path fill="#87949D" opacity="1.000000" stroke="none" 
	d="
M373.302765,122.913040 
	C373.192688,122.671524 373.346741,122.462601 373.661011,122.133110 
	C373.802582,121.998779 373.971069,122.409271 374.002258,122.628799 
	C374.033447,122.848320 373.548218,122.931870 373.302765,122.913040 
z"/>
<path fill="#87949D" opacity="1.000000" stroke="none" 
	d="
M303.107208,122.198929 
	C303.392517,122.161858 303.568573,122.356468 303.827576,122.738052 
	C303.935669,122.902298 303.443329,122.941353 303.200470,122.897476 
	C302.957611,122.853607 303.023071,122.407883 303.107208,122.198929 
z"/>
<path fill="#87949D" opacity="1.000000" stroke="none" 
	d="
M210.309509,122.921524 
	C210.200211,122.679062 210.354660,122.468796 210.667618,122.135002 
	C210.808655,121.998657 210.976913,122.412086 211.009521,122.632751 
	C211.042114,122.853424 210.555801,122.940918 210.309509,122.921524 
z"/>
<path fill="#87949D" opacity="1.000000" stroke="none" 
	d="
M140.113220,122.197403 
	C140.398422,122.159615 140.574219,122.352287 140.832611,122.731033 
	C140.940399,122.894119 140.450470,122.932076 140.208496,122.890198 
	C139.966522,122.848328 140.029022,122.404884 140.113220,122.197403 
z"/>
<path fill="#9BA7AF" opacity="1.000000" stroke="none" 
	d="
M210.823578,110.711502 
	C193.004227,111.352005 175.237473,111.685493 157.469162,111.827354 
	C152.000809,111.871017 146.528305,111.391243 140.643402,111.122742 
	C141.892578,102.720222 145.072845,99.792709 153.344009,99.028908 
	C153.674545,98.998390 154.009537,99.019928 154.342056,99.006744 
	C169.166519,98.418831 169.011871,98.362991 174.126404,84.161522 
	C176.970856,76.263390 180.223312,68.493675 183.661819,60.832123 
	C189.694000,47.391529 201.179169,41.463604 215.014069,41.178413 
	C243.295151,40.595432 271.597260,40.917770 299.888885,41.122375 
	C303.074158,41.145412 306.247589,42.809387 309.924408,44.199986 
	C316.557220,50.126823 320.331696,56.990696 323.145020,64.625381 
	C326.764435,74.447784 330.876007,84.088707 334.767487,93.811058 
	C337.470917,100.565369 339.639709,101.477440 347.044189,98.944336 
	C351.520508,98.969833 356.072205,98.487350 360.455780,99.137787 
	C367.333832,100.158363 371.288605,100.213287 373.823975,110.719551 
	C356.335724,111.352585 338.901276,111.691849 321.465302,111.826469 
	C315.664581,111.871262 309.859833,111.391174 303.642548,111.122543 
	C303.958923,102.288635 308.069611,100.386116 318.871490,98.486671 
	C315.068665,88.966911 311.929474,79.281456 307.360565,70.325348 
	C304.407867,64.537369 297.626007,65.047035 291.206299,64.646370 
	C284.658569,58.248795 277.356323,54.455311 269.013611,54.108292 
	C251.764191,53.390785 234.483582,53.200195 217.216354,53.222794 
	C207.987854,53.234867 199.330963,56.030968 194.979080,64.879784 
	C190.004044,74.995682 186.095184,85.641212 181.911301,96.131683 
	C181.543579,97.053673 182.219009,99.242271 183.008698,99.633255 
	C187.225220,101.720940 192.026993,99.565948 193.745834,95.035370 
	C196.221466,88.510124 198.486206,81.901451 201.113632,75.439255 
	C201.930984,73.428963 203.632431,71.778137 204.929138,69.962746 
	C201.384018,79.426178 197.838882,88.889603 194.179840,98.657150 
	C202.361755,99.431068 209.649094,100.747040 210.823578,110.711502 
z"/>
<path fill="#74838D" opacity="1.000000" stroke="none" 
	d="
M346.874939,98.620628 
	C339.639709,101.477440 337.470917,100.565369 334.767487,93.811058 
	C330.876007,84.088707 326.764435,74.447784 323.145020,64.625381 
	C320.331696,56.990696 316.557220,50.126823 310.253204,44.414036 
	C316.405609,43.196327 320.137848,47.752003 323.941467,51.301952 
	C334.121338,60.802860 336.792847,74.346039 341.935608,86.540039 
	C343.578918,90.436531 345.118591,94.376724 346.874939,98.620628 
z"/>
<path fill="#B06328" opacity="1.000000" stroke="none" 
	d="
M222.137024,320.491180 
	C222.621094,328.325256 224.858475,330.742859 233.662659,333.036102 
	C234.834900,340.300476 238.618729,343.919006 245.755829,343.971375 
	C257.579803,344.058136 269.406006,344.096680 281.229126,343.964447 
	C292.062164,343.843292 301.740234,334.986206 303.014496,324.286102 
	C303.407593,320.985199 303.739441,317.677032 304.102264,314.372498 
	C305.411346,302.449249 315.027740,292.081512 328.059784,289.317871 
	C366.004364,281.271271 403.963257,273.286041 441.976288,265.570953 
	C462.281860,261.449738 477.986664,274.719421 477.994812,295.482147 
	C478.010193,334.619995 477.995941,373.757843 478.000061,413.456299 
	C478.006104,414.016907 478.026764,414.224274 477.562683,414.168335 
	C473.954041,414.091309 470.807617,413.989685 467.665222,414.062683 
	C450.818817,414.453979 441.823547,427.188660 442.953979,439.597382 
	C443.207611,442.381439 442.892059,445.217346 442.380005,448.023315 
	C318.247986,448.019653 194.574478,448.022095 70.639069,447.698425 
	C70.251396,443.901855 70.038834,440.431976 70.015640,436.960846 
	C69.936630,425.138916 63.045113,416.225098 51.282124,415.178528 
	C38.622940,414.052216 25.829023,414.440125 12.862967,414.112183 
	C12.632041,414.056976 12.163484,413.979858 12.163485,413.979858 
	C12.108997,393.037537 12.021049,372.095245 12.007771,351.152893 
	C11.987219,318.736816 12.017647,286.320709 12.102076,253.438782 
	C64.053993,264.044830 115.930603,275.115295 167.806427,286.189362 
	C184.068954,289.661011 200.326416,293.156494 216.595947,296.594879 
	C218.045578,296.901245 219.567505,296.865570 221.476410,296.983887 
	C221.962250,304.661774 222.027527,312.344513 222.137024,320.491180 
M36.000141,345.346222 
	C36.000183,333.375061 36.006996,321.403900 35.997356,309.432739 
	C35.992668,303.613831 36.407024,297.739532 35.700645,292.005005 
	C35.440605,289.893951 32.817440,287.057983 30.711082,286.427704 
	C27.524769,285.474274 25.119272,287.850433 24.330261,291.216736 
	C24.068119,292.335175 24.033257,293.525848 24.032034,294.683624 
	C24.013575,312.141541 23.986015,329.599579 24.035036,347.057343 
	C24.051613,352.961212 26.428461,356.214874 30.521399,355.789124 
	C35.652481,355.255402 36.086445,351.365082 35.999191,347.291229 
	C35.992073,346.958893 35.999260,346.626190 36.000141,345.346222 
z"/>
<path fill="#F19920" opacity="1.000000" stroke="none" 
	d="
M499.505402,413.887939 
	C500.137268,413.892731 500.304688,413.943939 500.730499,414.524963 
	C501.009918,427.741516 501.030945,440.428284 501.051941,453.115021 
	C500.921326,461.883881 490.540894,472.167297 481.038330,472.018982 
	C467.825470,472.009521 455.489075,471.989227 443.075989,471.717072 
	C442.947510,471.297516 442.895691,471.129791 442.889954,470.498260 
	C443.010803,463.015198 443.085602,455.996002 443.617676,448.981689 
	C451.200531,448.980804 458.331635,449.149353 465.450226,448.923676 
	C473.808594,448.658661 477.867462,444.403900 477.978302,436.098083 
	C478.075592,428.807892 478.016663,421.515625 478.026764,414.224274 
	C478.026764,414.224274 478.006104,414.016907 477.997986,413.912964 
	C485.006866,413.850830 492.023895,413.892578 499.505402,413.887939 
z"/>
<path fill="#F6B545" opacity="1.000000" stroke="none" 
	d="
M13.093893,414.167389 
	C25.829023,414.440125 38.622940,414.052216 51.282124,415.178528 
	C63.045113,416.225098 69.936630,425.138916 70.015640,436.960846 
	C70.038834,440.431976 70.251396,443.901855 70.646652,447.937988 
	C70.916138,448.503632 70.839645,448.976898 70.381073,448.982544 
	C60.591999,448.991730 51.261501,448.996735 41.931007,448.998505 
	C24.896053,449.001740 20.613007,455.732941 28.034777,470.840729 
	C19.269299,468.515808 14.777374,462.397705 12.986473,453.020813 
	C13.023741,439.494141 13.058817,426.830750 13.093893,414.167389 
M37.553398,437.025696 
	C42.883018,437.007874 48.212883,437.015320 53.542168,436.963257 
	C57.029831,436.929138 59.245483,434.805023 58.630062,431.661713 
	C58.228386,429.610168 55.783970,426.517639 54.087349,426.404724 
	C45.800377,425.853271 37.436714,425.841095 29.150772,426.395081 
	C27.456711,426.508362 24.908976,429.777527 24.743383,431.758179 
	C24.612343,433.325500 27.231964,435.861847 29.170145,436.665527 
	C31.319841,437.556946 34.082813,436.969421 37.553398,437.025696 
z"/>
<path fill="#F19920" opacity="1.000000" stroke="none" 
	d="
M28.364174,471.006622 
	C20.613007,455.732941 24.896053,449.001740 41.931007,448.998505 
	C51.261501,448.996735 60.591999,448.991730 70.427658,449.449982 
	C71.007355,456.928528 71.081879,463.945282 71.078369,471.213776 
	C70.948921,471.633514 70.897514,471.801544 70.390182,471.976257 
	C57.586086,472.007904 45.237896,472.032806 32.889709,472.057739 
	C31.490997,471.762665 30.092285,471.467590 28.364174,471.006622 
z"/>
<path fill="#AF6228" opacity="1.000000" stroke="none" 
	d="
M70.846100,471.969543 
	C70.897514,471.801544 70.948921,471.633514 71.534607,471.222321 
	C195.660538,470.973450 319.252197,470.967773 442.843872,470.962097 
	C442.895691,471.129791 442.947510,471.297516 443.028595,471.932251 
	C443.057892,472.399292 442.994415,472.834961 442.994415,472.834961 
	C441.999176,472.889832 441.003906,472.992737 440.008667,472.992706 
	C317.314789,472.991791 194.620895,472.983337 71.433716,472.687561 
	C70.940430,472.399872 70.846100,471.969543 70.846100,471.969543 
z"/>
<path fill="#DA953A" opacity="1.000000" stroke="none" 
	d="
M12.862967,414.112183 
	C13.058817,426.830750 13.023741,439.494141 12.972979,452.632507 
	C12.637475,451.753723 12.047819,450.401428 12.040301,449.045929 
	C11.977207,437.667664 12.020871,426.288757 12.097937,414.444946 
	C12.163484,413.979858 12.632041,414.056976 12.862967,414.112183 
z"/>
<path fill="#E4962E" opacity="1.000000" stroke="none" 
	d="
M501.404266,452.856201 
	C501.030945,440.428284 501.009918,427.741516 500.982605,414.598358 
	C500.976318,414.141937 501.403320,414.044678 501.619690,414.011108 
	C501.809570,426.850800 501.783081,439.724060 501.404266,452.856201 
z"/>
<path fill="#E4962E" opacity="1.000000" stroke="none" 
	d="
M70.390182,471.976257 
	C70.846100,471.969543 70.940430,472.399872 70.972595,472.617737 
	C58.471836,472.810944 45.938923,472.786285 33.147858,472.409668 
	C45.237896,472.032806 57.586086,472.007904 70.390182,471.976257 
z"/>
<path fill="#E4962E" opacity="1.000000" stroke="none" 
	d="
M443.458374,472.902222 
	C442.994415,472.834961 443.057892,472.399292 443.105286,472.184113 
	C455.489075,471.989227 467.825470,472.009521 480.637390,472.040955 
	C479.756409,472.368073 478.401428,472.950073 477.043091,472.958008 
	C466.003174,473.022583 454.962646,472.979675 443.458374,472.902222 
z"/>
<path fill="#E69529" opacity="1.000000" stroke="none" 
	d="
M281.264954,332.750488 
	C281.261322,332.611664 281.492706,332.426117 281.931091,332.144409 
	C281.963776,332.300110 281.751099,332.518616 281.264954,332.750488 
z"/>
<path fill="#72818B" opacity="1.000000" stroke="none" 
	d="
M205.240646,69.802094 
	C203.632431,71.778137 201.930984,73.428963 201.113632,75.439255 
	C198.486206,81.901451 196.221466,88.510124 193.745834,95.035370 
	C192.026993,99.565948 187.225220,101.720940 183.008698,99.633255 
	C182.219009,99.242271 181.543579,97.053673 181.911301,96.131683 
	C186.095184,85.641212 190.004044,74.995682 194.979080,64.879784 
	C199.330963,56.030968 207.987854,53.234867 217.216354,53.222794 
	C234.483582,53.200195 251.764191,53.390785 269.013611,54.108292 
	C277.356323,54.455311 284.658569,58.248795 290.761078,64.593185 
	C266.469696,64.918037 242.011917,64.751480 217.565826,65.208839 
	C213.535034,65.284256 209.555420,68.094887 205.240646,69.802094 
z"/>
<path fill="#FFCB5B" opacity="1.000000" stroke="none" 
	d="
M245.239258,274.039124 
	C251.178238,274.208832 256.660156,274.212952 262.113312,274.610840 
	C265.884827,274.886047 268.311005,276.831543 267.958801,281.104401 
	C267.607788,285.362762 264.721802,286.014648 261.261536,286.001892 
	C254.781799,285.978027 248.301682,285.964539 241.822144,286.009094 
	C237.970901,286.035583 234.705292,285.113922 234.173065,280.679321 
	C233.592651,275.843109 237.221451,275.006378 240.805023,274.377625 
	C242.106262,274.149353 243.447144,274.147003 245.239258,274.039124 
z"/>
<path fill="#A35425" opacity="1.000000" stroke="none" 
	d="
M442.889954,470.498260 
	C319.252197,470.967773 195.660538,470.973450 71.612640,470.970581 
	C71.081879,463.945282 71.007355,456.928528 70.886230,449.444336 
	C70.839645,448.976898 70.916138,448.503632 70.908554,448.264069 
	C194.574478,448.022095 318.247986,448.019653 442.460632,448.260101 
	C443.053314,448.660950 443.106842,448.818878 443.160400,448.976776 
	C443.085602,455.996002 443.010803,463.015198 442.889954,470.498260 
z"/>
<path fill="#F6B545" opacity="1.000000" stroke="none" 
	d="
M443.617676,448.981689 
	C443.106842,448.818878 443.053314,448.660950 442.919128,448.266174 
	C442.892059,445.217346 443.207611,442.381439 442.953979,439.597382 
	C441.823547,427.188660 450.818817,414.453979 467.665222,414.062683 
	C470.807617,413.989685 473.954041,414.091309 477.562683,414.168335 
	C478.016663,421.515625 478.075592,428.807892 477.978302,436.098083 
	C477.867462,444.403900 473.808594,448.658661 465.450226,448.923676 
	C458.331635,449.149353 451.200531,448.980804 443.617676,448.981689 
z"/>
<path fill="#C87529" opacity="1.000000" stroke="none" 
	d="
M35.999973,345.819946 
	C35.999260,346.626190 35.992073,346.958893 35.999191,347.291229 
	C36.086445,351.365082 35.652481,355.255402 30.521399,355.789124 
	C26.428461,356.214874 24.051613,352.961212 24.035036,347.057343 
	C23.986015,329.599579 24.013575,312.141541 24.032034,294.683624 
	C24.033257,293.525848 24.068119,292.335175 24.330261,291.216736 
	C25.119272,287.850433 27.524769,285.474274 30.711082,286.427704 
	C32.817440,287.057983 35.440605,289.893951 35.700645,292.005005 
	C36.407024,297.739532 35.992668,303.613831 35.997356,309.432739 
	C36.006996,321.403900 36.000183,333.375061 35.999973,345.819946 
z"/>
<path fill="#FFCB5B" opacity="1.000000" stroke="none" 
	d="
M37.066074,437.025757 
	C34.082813,436.969421 31.319841,437.556946 29.170145,436.665527 
	C27.231964,435.861847 24.612343,433.325500 24.743383,431.758179 
	C24.908976,429.777527 27.456711,426.508362 29.150772,426.395081 
	C37.436714,425.841095 45.800377,425.853271 54.087349,426.404724 
	C55.783970,426.517639 58.228386,429.610168 58.630062,431.661713 
	C59.245483,434.805023 57.029831,436.929138 53.542168,436.963257 
	C48.212883,437.015320 42.883018,437.007874 37.066074,437.025757 
z"/>
</svg>